<svg width="135" height="25" viewBox="0 0 135 25" fill="none" xmlns="http://www.w3.org/2000/svg">
<g clip-path="url(#clip0_33146_415)">
<path d="M21.5169 22.6493L21.1587 20.9776C20.4207 17.5332 19.0683 14.2964 17.1387 11.3529V8.64058C18.0275 7.97178 18.6035 6.9084 18.6035 5.71289V4.24805C18.6035 3.84355 18.2756 3.51562 17.8711 3.51562H17.1387V0.732422C17.1387 0.32793 16.8107 0 16.4062 0C16.0018 0 15.6738 0.32793 15.6738 0.732422V3.52339C14.3584 3.6001 13.2059 4.29209 12.5 5.31528C11.7941 4.29209 10.6416 3.6001 9.32617 3.52339V0.732422C9.32617 0.32793 8.99824 0 8.59375 0C8.18926 0 7.86133 0.32793 7.86133 0.732422V3.51562H7.1289C6.72441 3.51562 6.39648 3.84355 6.39648 4.24805V5.71289C6.39648 6.9084 6.97246 7.97178 7.86133 8.64058V11.3529C5.93174 14.2964 4.57934 17.5332 3.84126 20.9776L3.48305 22.6493C3.40649 23.0066 3.60507 23.3658 3.94853 23.4909C6.69741 24.4923 9.57451 25 12.5 25C15.4255 25 18.3026 24.4923 21.0515 23.4909C21.3949 23.3658 21.5935 23.0067 21.5169 22.6493ZM15.918 4.98047H17.1387V5.71289C17.1387 6.92446 16.153 7.91016 14.9414 7.91016H13.2324V7.66602C13.2324 6.1852 14.4372 4.98047 15.918 4.98047ZM7.86133 4.98047H9.08203C10.5628 4.98047 11.7676 6.1852 11.7676 7.66602V7.91016H10.0586C8.84702 7.91016 7.86133 6.92446 7.86133 5.71289V4.98047ZM10.0586 9.375H14.9414C15.1922 9.375 15.4371 9.34956 15.6738 9.30132V10.8398H9.32617V9.30132C9.56289 9.34956 9.80781 9.375 10.0586 9.375ZM12.5 23.5352C9.95849 23.5352 7.45561 23.128 5.05073 22.3244L5.27353 21.2846C5.96118 18.0757 7.21054 15.0566 8.98901 12.3047L16.0109 12.3047C17.7894 15.0566 19.0388 18.0757 19.7264 21.2845L19.9492 22.3244C17.5444 23.128 15.0415 23.5352 12.5 23.5352Z" fill="black"/>
</g>
<path d="M37.488 6.64H39.04L40.576 16.336L43.376 11.648L42.56 6.704H43.92L44.48 10.656L46.736 6.704H48.096L45.184 11.648L45.984 16.336L51.632 6.64H53.216L46.288 18H45.056L44.08 12.64L40.8 18H39.568L37.488 6.64ZM57.9138 18.08C57.2738 18.08 56.7031 17.952 56.2018 17.696C55.7004 17.44 55.2791 17.0933 54.9378 16.656C54.5964 16.2187 54.3351 15.7173 54.1538 15.152C53.9831 14.5867 53.8978 14 53.8978 13.392C53.8978 12.6987 54.0151 12.0213 54.2498 11.36C54.4844 10.688 54.8044 10.064 55.2098 9.488C55.6258 8.912 56.1058 8.40533 56.6498 7.968C57.2044 7.53067 57.7964 7.18933 58.4258 6.944C59.0658 6.688 59.7218 6.56 60.3938 6.56C61.0338 6.56 61.5991 6.69333 62.0898 6.96C62.5911 7.216 63.0124 7.568 63.3538 8.016C63.6951 8.464 63.9511 8.97067 64.1218 9.536C64.2924 10.0907 64.3778 10.672 64.3778 11.28C64.3778 11.9627 64.2604 12.6347 64.0258 13.296C63.8018 13.9573 63.4818 14.576 63.0658 15.152C62.6604 15.728 62.1804 16.2347 61.6258 16.672C61.0818 17.1093 60.4951 17.456 59.8658 17.712C59.2364 17.9573 58.5858 18.08 57.9138 18.08ZM58.2018 16.784C58.8631 16.784 59.4764 16.624 60.0418 16.304C60.6071 15.984 61.1031 15.5627 61.5298 15.04C61.9671 14.5067 62.3031 13.9253 62.5378 13.296C62.7831 12.656 62.9058 12.0213 62.9058 11.392C62.9058 10.7627 62.7938 10.1813 62.5698 9.648C62.3564 9.11467 62.0418 8.688 61.6258 8.368C61.2098 8.03733 60.6978 7.872 60.0898 7.872C59.4391 7.872 58.8258 8.032 58.2498 8.352C57.6738 8.66133 57.1724 9.08267 56.7458 9.616C56.3191 10.1387 55.9831 10.72 55.7378 11.36C55.4924 11.9893 55.3698 12.624 55.3698 13.264C55.3698 13.8933 55.4764 14.4747 55.6898 15.008C55.9138 15.5413 56.2338 15.9733 56.6498 16.304C57.0764 16.624 57.5938 16.784 58.2018 16.784ZM69.061 6.64H70.581L72.853 14.016L78.277 6.64H79.781L77.365 18H75.925L77.797 9.216L72.853 15.952H72.037L69.957 9.216L68.085 18H66.645L69.061 6.64ZM87.3792 6.64H88.6112L90.5792 18H89.0432L88.4992 14.672H84.0512L82.1152 18H80.5792L87.3792 6.64ZM88.4352 13.552L87.6512 8.304L84.5632 13.552H88.4352ZM93.0648 16.88L101.849 7.92H95.1128L95.3848 6.64H103.801L103.561 7.76L94.9048 16.72H101.657L101.385 18H92.8248L93.0648 16.88ZM107.299 6.656H108.739L106.323 18H104.883L107.299 6.656ZM113.023 6.64H114.143L118.847 15.488L120.719 6.656H122.159L119.743 18H118.543L113.887 9.328L112.047 18H110.607L113.023 6.64ZM128.388 18.08C127.78 18.08 127.23 17.952 126.74 17.696C126.249 17.4293 125.833 17.0773 125.492 16.64C125.15 16.192 124.889 15.6853 124.708 15.12C124.526 14.544 124.436 13.9467 124.436 13.328C124.436 12.464 124.612 11.632 124.964 10.832C125.316 10.0213 125.79 9.296 126.388 8.656C126.996 8.00533 127.678 7.49333 128.436 7.12C129.204 6.74667 130.004 6.56 130.836 6.56C131.881 6.56 132.692 6.78933 133.268 7.248C133.854 7.70667 134.249 8.304 134.452 9.04L133.188 9.808C133.017 9.14667 132.697 8.656 132.228 8.336C131.758 8.016 131.193 7.856 130.532 7.856C129.902 7.856 129.305 8.01067 128.74 8.32C128.185 8.62933 127.694 9.04533 127.268 9.568C126.841 10.08 126.505 10.656 126.26 11.296C126.014 11.936 125.892 12.5867 125.892 13.248C125.892 13.8987 126.009 14.4907 126.244 15.024C126.478 15.5573 126.809 15.984 127.236 16.304C127.673 16.624 128.185 16.784 128.772 16.784C129.38 16.784 129.993 16.6187 130.612 16.288C131.23 15.9573 131.86 15.4507 132.5 14.768L132.196 16.256C131.577 16.8747 130.953 17.3333 130.324 17.632C129.694 17.9307 129.049 18.08 128.388 18.08ZM132.628 13.424H130.308L130.548 12.336H134.068L132.868 18H131.652L132.628 13.424Z" fill="black"/>
<defs>
<clipPath id="clip0_33146_415">
<rect width="25" height="25" fill="white"/>
</clipPath>
</defs>
</svg>
